<?xml version="1.0" encoding="UTF-8" standalone="no"?>
<!DOCTYPE svg PUBLIC "-//W3C//DTD SVG 1.1//EN" "http://www.w3.org/Graphics/SVG/1.1/DTD/svg11.dtd">
<svg width="100%" height="100%" viewBox="0 0 64 64" version="1.1" xmlns="http://www.w3.org/2000/svg" xmlns:xlink="http://www.w3.org/1999/xlink" xml:space="preserve" xmlns:serif="http://www.serif.com/" style="fill-rule:evenodd;clip-rule:evenodd;stroke-linejoin:round;stroke-miterlimit:2;">
    <rect id="Artboard1" x="0" y="0" width="64" height="64" style="fill:none;"/>
    <g id="Artboard11" serif:id="Artboard1">
        <g transform="matrix(1,0,0,1,-0.56925,2)">
            <path d="M11.643,30.99C11.136,31.497 10.313,31.497 9.806,30.99C8.826,30.01 7.295,28.479 6.403,27.587C6.214,27.399 6.109,27.143 6.109,26.877C6.109,26.61 6.214,26.355 6.403,26.166C10.194,22.375 28.017,4.553 31.844,0.725C32.245,0.325 32.894,0.325 33.294,0.725C37.127,4.558 54.995,22.425 58.752,26.182C58.936,26.367 59.039,26.616 59.039,26.877C59.039,27.137 58.936,27.387 58.752,27.571C57.878,28.445 56.372,29.951 55.384,30.939C54.849,31.474 53.98,31.474 53.444,30.939C49.747,27.241 36.582,14.077 33.31,10.804C32.901,10.395 32.238,10.395 31.829,10.804C28.541,14.092 15.268,27.365 11.643,30.99Z" style="fill:white;"/>
        </g>
        <g transform="matrix(1,0,0,1,-0.56925,21.2)">
            <path d="M11.643,30.99C11.136,31.497 10.313,31.497 9.806,30.99C8.826,30.01 7.295,28.479 6.403,27.587C6.214,27.399 6.109,27.143 6.109,26.877C6.109,26.61 6.214,26.355 6.403,26.166C10.194,22.375 28.017,4.553 31.844,0.725C32.245,0.325 32.894,0.325 33.294,0.725C37.127,4.558 54.995,22.425 58.752,26.182C58.936,26.367 59.039,26.616 59.039,26.877C59.039,27.137 58.936,27.387 58.752,27.571C57.878,28.445 56.372,29.951 55.384,30.939C54.849,31.474 53.98,31.474 53.444,30.939C49.747,27.241 36.582,14.077 33.31,10.804C32.901,10.395 32.238,10.395 31.829,10.804C28.541,14.092 15.268,27.365 11.643,30.99Z" style="fill:white;"/>
        </g>
    </g>
</svg>
